<svg width="20" height="21" viewBox="0 0 20 21" fill="none" xmlns="http://www.w3.org/2000/svg">
<path fill-rule="evenodd" clip-rule="evenodd" d="M0 0V16H13.68L20 20.43V0H0ZM18 16.59L14.32 14H2V2H18V16.59ZM5 8C5 7.44772 5.44772 7 6 7C6.55228 7 7 7.44772 7 8C7 8.55229 6.55228 9 6 9C5.44772 9 5 8.55229 5 8ZM9 8C9 7.44772 9.44771 7 10 7C10.5523 7 11 7.44772 11 8C11 8.55229 10.5523 9 10 9C9.44771 9 9 8.55229 9 8ZM13 8C13 7.44772 13.4477 7 14 7C14.5523 7 15 7.44772 15 8C15 8.55229 14.5523 9 14 9C13.4477 9 13 8.55229 13 8Z" fill="#111111"/>
</svg>
